<svg xmlns="http://www.w3.org/2000/svg" width="400" height="225.292" viewBox="0 0 400 NaN" fill-rule="evenodd" xmlns:v="https://vecta.io/nano"><path d="M43.333 50.572V58.5h-8.5-8.5v40.86 40.861l14.039-.116 14.164-.241c.068-.068.134-7.172.147-15.786.028-19.982.053-20.268 2.106-24.385 3.15-6.314 11.574-8.149 15.294-3.331.275.356.594.752.709.881s.208.336.208.462.063.3.139.387c1.259 1.432 1.53 6.012 1.529 25.785l-.001 16.126 8.541-.043 8.542-.043.083-2.942.084-2.942.916.83c1.597 1.446 6.479 4.47 7.216 4.47.083 0 .387.109.676.242.712.327 2.498.91 3.338 1.09a52.68 52.68 0 0 1 1.354.313c.366.091 1.679.239 2.916.328 6.982.506 12.404-1.035 18.042-5.129l.958-.695v2.259V140h15.084H157.5v-4.496-4.497l1.792 1.801c3.055 3.07 5.465 4.783 8.94 6.357 1.496.677 2.295.964 3.518 1.265.55.135 1.244.323 1.543.419s1.499.28 2.667.411c7.253.809 13.551-.815 18.902-4.876.52-.394.989-.717 1.042-.717s.096.975.096 2.166V140h5.25c5.139 0 5.25.007 5.25.333s.111.334 6.25.334H219V129.75v-10.917h6.833 6.834v10.917 10.917h6.25 6.25v-2.343-2.342l.958.769 1.264 1.02c3.905 3.194 12.923 4.804 17.295 3.087.22-.086.737-.248 1.149-.36 2.174-.591 6.492-2.955 7.062-3.868.366-.586.438-.263.438 1.953v2.25h4.5c2.475 0 4.5.057 4.499.125s-.248.388-.55.709c-3.128 3.325-4.139 8.839-2.408 13.124l.413 1.025-.852-.442c-1.365-.708-3.792-.66-5.208.102-2.197 1.182-2.968 4.308-1.559 6.321.274.392.499.777.499.855s.206.282.458.451c3.593 2.415 8.786.093 8.513-3.806l-.055-.786.75.716c1.661 1.586 2.127 1.951 3.423 2.679 6.121 3.435 16.279 3.111 21.365-.682l.537-.401 1.046.657c1.591 1 2.957 1.583 5.379 2.297 3.163.931 9.916.096 12.75-1.577a49.2 49.2 0 0 1 1.209-.686l.625-.342v1.081 1.08h4.583 4.583l.001-6.791c.002-9.478.247-10.613 2.606-12.042 2.901-1.758 6.023-.416 6.487 2.789.064.437.148.852.189.922s.066 3.501.057 7.625l-.016 7.497h4.588 4.588v-6.843c0-8.651.212-10.084 1.68-11.392 1.49-1.327 4.357-1.738 5.764-.825 1.605 1.04 1.723 1.82 1.723 11.405v7.655h4.583 4.584l-.006-8.375c-.007-10.141-.097-11.438-.931-13.422-.126-.301-.23-.572-.23-.602s.529-.184 1.175-.341c2.245-.546 3.942-1.507 5.71-3.234.977-.954 2.615-3.208 2.615-3.598 0-.07.106-.364.235-.652 1.104-2.464.873-6.887-.51-9.739-1.019-2.103-4.803-5.507-7.034-6.328-.151-.056-.312-.144-.358-.197s-1.56-.836-3.366-1.741c-4.162-2.088-4.79-2.781-3.31-3.655 1.581-.934 4.259.098 6.989 2.692.982.933.694 1.106 4.481-2.684 3.705-3.709 3.56-3.496 2.915-4.289-4.609-5.657-11.35-7.832-17.709-5.715-1.546.515-3.977 1.868-4.197 2.337-.033.07-.451.498-.93.952l-.87.826-.543-.514c-2.935-2.776-8.199-4.555-13.482-4.553-5.715.001-9.895 1.558-14.043 5.23l-.648.574-.741-.987c-.408-.543-1.092-1.268-1.519-1.611s-.802-.68-.832-.749-.162-.125-.292-.125-.236-.067-.236-.149c0-.22-2.581-1.455-3.833-1.835-3.377-1.024-9.257-.541-11.5.945-.229.152-.518.292-.642.312-.492.079-2.232 1.344-3.73 2.713l-.804.735-1.129-1.152c-.62-.633-1.237-1.23-1.37-1.326-5.137-3.685-11.539-3.825-17.255-.377-1.322.797-1.237.828-1.237-.449v-1.083h-6.079-6.078l-.047 2.28c-.041 2.022-.074 2.253-.296 2.039-.537-.517-1.641-1.319-1.816-1.319-.101 0-.184-.058-.184-.129s-.356-.314-.792-.541-.829-.452-.875-.499c-.22-.226-2.218-1.098-3.333-1.454-6.965-2.225-14.478-.889-19.583 3.484l-.75.643-.417.357-.043-8.849-.043-8.85-6.207.044-6.207.044-.043 9.291-.043 9.292h-6.832H219v-9.333-9.334h-2.833-2.834V83.75v-4.583h-8.662-8.662l-.046 2.309-.046 2.309-1.75-1.242c-6.227-4.416-14.979-5.934-22.334-3.872l-1.75.483c-.621.164-2.637 1.012-2.75 1.156-.046.059-.233.133-.416.165s-.371.107-.417.167-.382.258-.748.441c-2.022 1.015-4.309 2.775-6.544 5.036l-1.708 1.73v-4.341-4.341H151h-6.5v-1.678c0-1.845-.036-1.801 1.083-1.327 4.711 1.999 11.53-1.227 13.378-6.328 2.612-7.209-2.337-14.365-9.961-14.404-2.748-.014-3.058.047-4.958.976l-.874.427h-7.917-7.918v13.601 13.601l-.589-.518c-.324-.284-.647-.517-.718-.517s-.275-.133-.453-.296c-4.869-4.459-16.137-6.163-23.814-3.601-.637.213-1.188.357-1.225.32-.068-.068 2.529-5.073 3.463-6.673.161-.275.688-1.25 1.171-2.167l2.17-4.083 2.123-4 2.342-4.407c.831-1.552 1.473-2.884 1.427-2.958s-.007-.135.087-.135.425-.506.736-1.125a52.77 52.77 0 0 1 .924-1.755c.196-.347.356-.666.356-.711s-2.37-.061-5.266-.036l-5.266.044-.376.668c-.429.765-1.841 3.408-2.802 5.248l-1.38 2.584-1.692 3.212c-.531 1.033-.994 1.783-1.03 1.667s-.179-.344-.319-.504-.205-.292-.145-.292-.219-.656-.618-1.458-.828-1.697-.952-1.988-.295-.486-.381-.433-.108.018-.048-.08-.075-.54-.3-.984c-.99-1.955-3.591-7.441-3.591-7.576 0-.083-2.334-.148-5.324-.148h-5.324l.338.765c.531 1.2.416 15.789-.133 16.819-1.19 2.233-5.279 2.513-6.632.455-.701-1.066-.75-1.724-.755-10.08l-.004-7.959h-2.885-2.885l-.218-.875c-.736-2.952-3.481-5.63-6.928-6.758-2.497-.817-3.46-.905-10.875-.987l-6.209-.068v7.927m14.76-6.187c4.153.893 7.636 3.762 7.937 6.538l.053.494-1.375.048-1.375.048v3.394 3.394l-.541.343-.542.344.517.18.517.181.097 4.2c.13 5.709.481 7.552 1.881 9.876l.595.988-.47.376c-2.582 2.07-4.434 2.417-13.345 2.504l-7.375.072V60.666v-16.7l6.125.083c4.588.062 6.42.146 7.301.336M52 53.5V57h1.303c4.022 0 5.958-1.401 5.655-4.093-.215-1.906-2.042-2.901-5.333-2.905L52 50v3.5m4.424-1.83c2.773 1.263.97 4.111-2.632 4.157l-.459.006v-2.25-2.25h1.176c.825 0 1.397.101 1.915.337m15.413 7.872c.005 11.095.624 12.527 5.403 12.498 4.586-.029 5.257-1.424 5.259-10.948 0-3.51.061-5.762.153-5.667.083.087 1.349 2.671 2.812 5.742l3.29 6.88c.619 1.275.626 1.313.427 2.204-2.091 9.343-19.081 10.678-23.355 1.834-1.082-2.237-1.177-3.118-1.276-11.793l-.087-7.625h3.685 3.685l.004 6.875m19.082-5.167l3.08 6.375 2.828 5.875c.306.665.608 1.208.671 1.208s1.418-2.456 3.009-5.458l4.011-7.542 1.117-2.083 3.683-.045c2.025-.025 3.682-.007 3.682.039s-1.208 2.354-2.685 5.128l-3.48 6.545-4.209 7.916-6.54 12.334-.836 1.583-3.727.045c-3.507.042-3.721.027-3.617-.25.061-.162 1.351-2.604 2.867-5.425l2.756-5.131-4.253-8.953-5.422-11.411-1.17-2.458h3.714 3.714l.807 1.708m60.232 2.382c3.302.778 6.218 3.803 6.937 7.195 1.989 9.388-9.364 15.407-15.933 8.448-6.434-6.816-.122-17.793 8.996-15.643M142 57.991c0 .086-.133.255-.296.375-4.303 3.161-4.224 10.819.157 15.184l1.472 1.467v2.158 2.158h-1.416-1.417v29.75 29.75h-5.917-5.916v-3c0-1.65-.04-3-.089-3s-.659.486-1.354 1.08c-13.268 11.32-32.66 6.951-41.037-9.246-5.123-9.904-4.424-24.218 1.622-33.25a37.38 37.38 0 0 1 2.019-2.704l1.014-1.204 2.521-.046 2.52-.046 1.6-2.996 1.6-2.996 1.334-.562c8.825-3.724 19.541-1.823 26.907 4.772.634.567 1.195 1.032 1.248 1.032s.095-6.488.095-14.417V57.833h6.666c4.066 0 6.667.062 6.667.158M42.626 69.625l.043 9.708h-2.501-2.501v29.75 29.75h-5-5V99.332 59.83l7.458.043 7.458.044.043 9.708m9.485-6.847c-.061.061-.111 1.973-.111 4.25v4.139h2.319c2.523 0 4.439-.284 5.458-.808 3.119-1.604 2.295-5.832-1.364-6.996-1.569-.5-5.978-.909-6.302-.585m4.472 1.465c2.2.391 3.175.971 3.686 2.194.956 2.287-1.21 3.542-6.144 3.56l-.792.003v-3-3l.959.003c.527.002 1.558.11 2.291.24m35.025 10.283l.424.944-.718 1.306-2.413 4.474c-.89 1.761-1.852 3.445-1.966 3.441-.066-.003-.723-.569-1.461-1.258s-1.558-1.349-1.824-1.467-.483-.265-.483-.328c0-.184-2.335-1.542-3.408-1.982l-.991-.406 1.075-.134c2.32-.289 5.99-1.6 5.99-2.139 0-.079.086-.144.191-.144.655 0 3.042-2.666 3.814-4.259l.372-.769.487.889a31.54 31.54 0 0 1 .911 1.832m-24.441 1.526c.723.68 2.068 1.609 2.363 1.632.121.009-.568.121-1.53.247-4.175.549-7.663 1.933-11.583 4.597L54.75 83.66l-.083-2.205-.084-2.205-5.208-.044c-4.327-.037-5.208-.083-5.208-.277s1.21-.246 7.375-.313c7.571-.083 8.686-.171 10.859-.857 1.173-.371 3.198-1.416 3.626-1.871.46-.489.443-.492 1.14.164m8.141 3.445c3.66.781 7.095 2.651 9.849 5.361 1.251 1.231 1.318 1.385.927 2.141l-.25.483.791.051c.752.048.811.088 1.182.8l.391.75-1.11 1.65c-7.883 11.723-6.979 29.294 2.066 40.129l1.346 1.611v3.182 3.182l-7.292-.044-7.291-.043-.094-17.333c-.095-17.627-.133-18.703-.763-21.5-2.164-9.617-14.532-10.093-19.463-.75-2.078 3.938-2.258 5.99-2.261 25.791l-.003 13.875H46h-7.333v-29.166V80.5h7.329 7.33l.045 2.914.046 2.915 1.166-.938c6.755-5.43 13.674-7.397 20.725-5.894m106.56-.312c5.198.559 9.759 2.618 14.132 6.377l1.25 1.075.045-3.069.046-3.068h7.329H212v4 4h-2.667-2.666v25.167 25.166H202h-4.667v-3c0-1.65-.039-3-.086-3s-.704.534-1.459 1.186c-15.568 13.461-39.555 3.886-43.681-17.436-4.099-21.184 10.459-39.477 29.761-37.398m-25.701 6.109v4.794l-.561.833c-6.774 10.058-6.852 26.703-.173 36.768l.734 1.106v5.019 5.019h-7.334-7.333v-29.166V80.5h7.333 7.334v4.794M217.5 99v9.333h8.249 8.248l.043-9.291.043-9.292 4.792-.044 4.792-.044v9.19 9.191l-.818 1.103c-4.977 6.716-4.977 16.992 0 23.708l.818 1.103v2.688 2.688h-4.834H234V128.5v-10.833h-8.25-8.25V128.5v10.833h-4.833-4.834V114.5 89.667h4.834 4.833V99m-107.276-6.253c-9.112 1.653-14.737 11.566-12.235 21.564 4.179 16.705 26.837 16.64 30.765-.088 3.004-12.799-6.384-23.68-18.53-21.476m68.582.003c-15.068 2.854-17.356 26.153-3.21 32.688 9.27 4.284 20.024-1.471 21.975-11.76 2.458-12.957-6.733-23.207-18.765-20.928m-61.015 1.575c2.254.703 3.823 1.624 5.489 3.223 1.272 1.222 2.887 3.321 2.887 3.754 0 .096.093.273.208.394.351.371.682 1.35 1.258 3.721.391 1.608.391 6.499 0 8.166-.532 2.265-.634 2.564-1.403 4.089-1.581 3.135-5.781 6.995-7.611 6.995-.084 0-.388.105-.677.234-3.426 1.532-9.934.451-13.275-2.204-1.854-1.473-5.68-6.697-4.905-6.697.038 0-.037-.281-.167-.625-.87-2.308-1.103-7.344-.461-9.958 2.201-8.959 10.214-13.723 18.657-11.092m67.459-.322l1.407.42c6.021 1.801 9.823 7.368 9.9 14.494.015 1.441.097 2.552.193 2.622.103.076.087.124-.042.125-.123.002-.209.225-.21.544-.005.913-.71 3.603-1.179 4.498-.084.159-.152.363-.152.452 0 .384-1.632 2.804-2.567 3.807-8.549 9.165-23.278 4.034-24.931-8.685-1.241-9.56 4.026-17.44 12.331-18.448 1.254-.152 4.518-.046 5.25.171m76.488 7.916c4.038.529 7.99 2.322 10.804 4.902l.958.879v13.39 13.389l-1.125.956c-11.123 9.453-27.901 4.373-31.674-9.589-.644-2.385-.642-7.315.005-9.708 2.558-9.476 11.435-15.477 21.032-14.219m37.144.239c2.813.719 5.54 2.805 6.993 5.349.463.812.474.812 1.046-.013 3.916-5.65 12.651-7.441 18.821-3.859 1.135.659 3.184 2.658 3.647 3.559l.306.595-.662.875c-5.616 7.42-5.156 18.964 1.039 26.067.834.956 1.095 1.376 1.095 1.762V137h-1.084H329v1.167c0 1.295-.097 1.382-.917.823-1.309-.893-4.737-2.323-5.569-2.323-.678 0-.681-.039-.681-9.825-.001-10.318-.094-11.647-.949-13.552-2.124-4.731-9.466-3.866-11.97 1.411-1.002 2.111-1.079 3.148-1.08 14.591-.001 11.327.118 10.473-1.325 9.547-1.794-1.151-4.34-2.082-6.871-2.513l-1.112-.189-.074-9.443c-.079-10.09-.113-10.537-.97-12.756-2.008-5.206-9.45-4.831-12.048.606-1.138 2.383-1.15 2.516-1.222 14.248l-.066 10.541h-4.657-4.657l.042-18.375.043-18.375 4.25-.047c5.555-.061 5-.301 5 2.158v2.021l.875-.819c3.806-3.565 9.017-4.972 13.84-3.738m48.653-.307c4.238.457 7.913 1.978 10.759 4.454l.544.473-.48 1.069c-2.341 5.217-.357 10.672 5.267 14.477 2.122 1.437 3.083 1.343-13.722 1.343H335.14l.115.541c1.71 8.087 11.409 10.552 18.64 4.738l.586-.471 2.172 1.037 2.171 1.038-1.204 1.315c-.662.724-1.347 1.496-1.522 1.717l-.318.402.597.716 1.11 1.327.513.61-1.042.649c-2.604 1.624-3.587 1.903-4.412 1.253-3.395-2.674-9.644-2.814-13.705-.307-1.227.757-1.174.771-1.174-.315V137h-1.74-1.741l-1.27-1.022c-4.964-3.994-7.44-10.552-6.598-17.478 1.311-10.781 10.289-17.825 21.217-16.649m24.798.059c2.544.388 4.025.952 6.229 2.372 1.18.76 3.605 3.07 3.605 3.434 0 .112-1.268 1.471-2.818 3.019l-2.819 2.814-.973-.839c-3.342-2.881-7.157-3.433-8.311-1.202-.835 1.615-.299 2.16 4.592 4.663 7.577 3.879 9.607 5.702 10.675 9.585 1.727 6.279-1.877 12.285-8.369 13.946l-1.44.369-1.024-.949c-2.672-2.473-7.469-3.376-11.636-2.19-.375.106-3.302-2.599-3.176-2.936.027-.073 1.066-1.245 2.31-2.606l2.776-3.054.514-.581.912.863c3.893 3.681 9.045 4.433 10.543 1.537 1.01-1.953-.356-3.453-5.507-6.044-3.309-1.665-4.893-2.674-6.488-4.136-8.402-7.701-1.396-19.864 10.405-18.065m-28.5 7.866c-3.464.536-5.98 2.336-7.653 5.474l-.533 1 5.022.044h9.936l4.914-.044-.621-1.243c-1.865-3.727-6.529-5.932-11.065-5.231m-86.5.829c-10.033 1.934-10.679 17.707-.844 20.626 7.57 2.248 14.422-4.806 12.611-12.981-1.201-5.422-6.257-8.707-11.767-7.645m90.204.463c1.398.292 2.614.747 3.036 1.135.178.163.39.297.472.297.236 0 1.84 1.592 2.173 2.156l.301.511h-7.936c-6.303 0-7.911-.043-7.813-.209 1.793-3.037 5.944-4.69 9.767-3.89m-85.818.864c1.479.454 1.794.605 2.77 1.323 5.364 3.949 4.584 13.316-1.355 16.266-6.47 3.213-13.025-2.066-12.269-9.881.535-5.539 5.782-9.265 10.854-7.708m32.245.164c.474.237 1.072.706 1.329 1.042 1.464 1.918 1.639 3.52 1.579 14.487l-.045 8.208-1.038.006c-2.382.012-6.54.851-8.062 1.626-.171.087-.685.335-1.144.551l-.958.452c-.562.268.006-20.093.614-22.025 1.176-3.735 4.829-5.79 7.725-4.347m23.585-.111c2.602 1.115 2.884 2.61 2.825 14.973L320.33 136h-1.907c-1.048 0-2.304.076-2.79.169l-1.8.351c-.86.17-3.317 1.085-3.5 1.304-.089.107-.959.509-1.101.509-.109 0 .039-18.745.153-19.416l.261-1.563c.671-4.059 4.651-6.763 7.903-5.369m51.743 13.588c.206.064.375.186.375.272s.077.155.17.155c.894 0 3.23 2.14 3.302 3.025.151 1.835-2.737 2.535-5.389 1.306-.183-.085-.446-.176-.583-.201s-.288-.084-.334-.13-.496-.366-1-.71c-.942-.645-3-2.58-3-2.821 0-.402-.57.028-1.915 1.446l-1.501 1.582-1.435-.707-2.333-1.112-1.179-.541a.43.43 0 0 0-.5.077c-4.806 4.674-11.502 4.965-15.553.678-.552-.584-1.584-2.414-1.584-2.808 0-.221 1.722-.251 14.584-.251H366v-.41-.411l1.458.723c.802.397 1.627.774 1.834.838m-69.566 11.844c2.41.42 5.186 1.49 6.576 2.534l.551.415-.893.942c-1.026 1.081-1.725 2.065-2.36 3.323l-.445.882-.703-.562c-2.239-1.791-5.602-2.423-9.035-1.699-7.752 1.635-8.49 11.061-1.065 13.592 3.098 1.056 7.934.338 10.011-1.486.776-.681.834-.67 1.287.267.51 1.052 1.658 2.636 2.501 3.45.865.835.885.765-.447 1.569-2.998 1.811-5.017 2.274-9.871 2.263-5.991-.014-9.075-1.098-12.248-4.304-9.836-9.94.774-23.866 16.141-21.186m23.191.319c1.736.511 4.552 1.854 5.458 2.604l.625.518v9.224 9.225l-.694.595c-3.842 3.288-11.925 4.094-17.039 1.698-10.651-4.992-10.578-18.087.129-23.022 3.282-1.512 8.056-1.861 11.521-.842m25.673-.316c2.075.53 4.347 2.046 5.246 3.501l.36.583 1.181-1.093c5.87-5.435 16.155-3.903 17.894 2.665.433 1.637.579 4.994.529 12.174l-.05 7.167-3.612.045-3.612.044-.067-7.711c-.082-9.376-.222-10.157-2.015-11.203-2.671-1.558-6.744-.438-8.105 2.229-.81 1.589-.869 2.177-.961 9.637l-.088 7.042h-3.562-3.561l-.003-6.375c-.003-6.67-.143-9.01-.616-10.337-1.409-3.953-7.644-3.854-9.684.154-.73 1.434-.756 1.711-.853 9.225l-.094 7.25-3.625.045-3.625.045v-12.424-12.423l3.625.045 3.625.045.048 1.371.048 1.372.921-.75c2.692-2.193 7.263-3.189 10.656-2.323m-32.573 5.844c-7.311 1.966-7.078 12.334.31 13.735 5.962 1.131 10.587-2.772 9.693-8.18-.688-4.172-5.406-6.791-10.003-5.555M321 144.53c3.183.999 4.867 4.886 3.452 7.97-2.191 4.775-9.942 4.798-12.201.037-1.322-2.784.492-7.263 3.219-7.948 2.121-.533 3.955-.553 5.53-.059m-21.833.036c.983.305 1.929.828 2.74 1.515l.657.556-.199.861c-.253 1.096-.257 4.058-.006 5.142.666 2.885-7.173 4.589-11.026 2.397-4.279-2.435-3.724-8.086 1-10.178 1.593-.705 5.032-.853 6.834-.293m-20.728 11.778c1.402.679 2.404 2.317 2.161 3.533-.803 4.013-7.32 4.235-8.269.282-.712-2.971 3.027-5.306 6.108-3.815" fill="#f9f8f9"/><path d="M44.708 60.625l.042 16.625 5.083.05c9.227.091 12.953-.516 15.395-2.509l.477-.39-.516-.839c-1.356-2.203-1.777-4.418-1.95-10.242l-.117-3.93-.519-.197-.52-.197.5-.328.5-.329.084-3.461.083-3.461 1.387-.049 1.386-.049-.115-.534c-.3-1.388-1.564-3.215-2.905-4.2-2.794-2.05-5.707-2.57-14.462-2.58L44.665 44l.043 16.625m10.677-10.606c2.194.34 3.441 1.291 3.699 2.821.446 2.636-1.529 4.16-5.39 4.16h-1.861v-3.472c0-1.91.05-3.522.111-3.584.173-.173 2.115-.13 3.441.075m9.286 9.356c.006 8.834.182 10.52 1.359 12.958 3.935 8.157 20.323 7.08 22.872-1.503.394-1.324.369-1.43-.996-4.281l-2.208-4.628-1.977-4.083-1.029-2.088-.018 5.333c-.019 5.677-.147 7.351-.646 8.469-1.438 3.216-7.299 3.575-9.288.569-.904-1.366-.944-1.745-1.028-9.913l-.079-7.541H68.15h-3.483l.004 6.708m18.484-6c.17.39.813 1.758 1.428 3.042l5.001 10.5 2.479 5.21 1.607 3.378-2.272 4.206-2.933 5.414-.662 1.208 3.64-.002 3.64-.001 2.584-4.868 3.642-6.873 6.107-11.506 5.417-10.317c0-.213-6.975-.107-7.115.108-.074.114-1.906 3.542-4.071 7.618l-4.099 7.464c-.09.03-1.369-2.441-2.842-5.492l-3.711-7.672-1.031-2.125h-3.559-3.56l.31.708M57.75 63.048c2.49.714 3.759 1.923 4.02 3.828.412 3.006-2.4 4.562-7.99 4.421l-1.863-.047-.045-4.08c-.025-2.244-.004-4.186.045-4.314.118-.308 4.606-.16 5.833.192M208 114.586v24.753l4.708-.045 4.709-.044.043-10.875.042-10.875h8.333 8.332v10.919 10.92l4.708-.045 4.708-.044.046-2.526.046-2.525-.943-1.308c-5.08-7.04-5.01-16.983.168-24.018l.767-1.041v-8.999-9h-4.75-4.75v9.334 9.333h-8.334-8.333v-9.333-9.334h-4.75H208v24.753m48.039-12.503c-7.276 1.319-13.247 6.782-15.163 13.871-.663 2.456-.659 7.651.009 10.125 3.662 13.573 20.505 18.6 31.323 9.349l1.292-1.105v-13.227-13.227l-.985-.911c-4.238-3.925-10.88-5.89-16.476-4.875m36.294.077c-2.744.588-4.942 1.719-6.941 3.57-1.5 1.389-1.392 1.465-1.392-.98v-2.083h-4.5-4.5v18.336 18.336l4.458-.045 4.459-.044.095-10.25c.115-12.251.2-12.934 1.946-15.561 2.949-4.439 9.412-4.375 11.467.115 1.038 2.269 1.241 4.715 1.241 14.959l.001 7.596 1.345.206c2.188.335 5.454 1.594 7.014 2.704.243.173.487.314.541.314s.1-4.315.1-9.59c0-12.211.154-13.723 1.633-16 3.084-4.747 10.1-4.843 11.851-.162.736 1.966.849 3.775.849 13.61v9.232l1.432.395a20.22 20.22 0 0 1 4.701 2.077l.686.433.049-1.205.049-1.206 1.125-.05c1.473-.064 1.48-.319.053-1.955-6.307-7.232-6.867-18.559-1.292-26.132l.74-1.007-.308-.595c-.169-.327-.88-1.167-1.579-1.866-5.464-5.466-16.161-4.252-20.739 2.354-.583.841-.566.845-1.215-.24-2.641-4.415-7.819-6.455-13.369-5.266m50.334-.215c-10.307 1.632-16.278 8.762-16.237 19.388.024 6.249 1.957 10.649 6.304 14.352l1.349 1.148h1.792 1.792v.917c0 1.084-.069 1.064 1.223.345 4.471-2.491 9.906-2.355 13.659.341l.818.588 1.858-.923c1.022-.507 2.035-1.063 2.252-1.235l.393-.312-.948-1.063c-1.444-1.619-1.461-1.404.254-3.269l1.507-1.639-2.133-1.02-2.133-1.021-.584.538c-5.42 5.005-14.751 3.822-17.729-2.247-.632-1.288-1.154-2.951-1.003-3.195.047-.076 6.718-.138 14.826-.138l14.74-.155c0-.086-.656-.629-1.458-1.208-5.533-3.995-7.345-9.472-4.829-14.599l.349-.712-.573-.499c-3.804-3.313-10.42-5.185-15.489-4.382m24.642.14c-7.62 1.518-11.321 9.356-7.309 15.478 1.535 2.341 4.009 4.267 8 6.227 5.387 2.645 6.909 4.168 6.156 6.157-1.16 3.062-6.22 2.674-10.285-.788-.749-.638-1.39-1.159-1.426-1.159-.086 0-5.349 5.819-5.407 5.978-.06.168 1.694 2.094 2.301 2.526.469.334.523.337 1.732.087 3.899-.805 8.244.195 10.712 2.467l.967.891 1-.229c5.659-1.291 9.001-5.371 8.988-10.97-.013-5.487-2.233-8.106-10.321-12.176-4.047-2.036-4.818-2.481-5.131-2.959-1.382-2.11 1.16-4.187 4.161-3.4 1.244.326 2.601 1.098 4.035 2.297.541.452 1.019.821 1.063.821s1.329-1.242 2.856-2.761l2.775-2.762-.511-.645c-3.15-3.978-9.178-6.111-14.356-5.08m-18.726 7.861c3.165.795 6.917 4.205 6.917 6.287 0 .278-19.613.432-19.889.156-.136-.136.879-2.014 1.68-3.109 2.163-2.956 7.053-4.399 11.292-3.334m-85.969.869c4.457 1.36 7.102 5.556 6.839 10.852-.666 13.42-19.562 13.341-20.075-.084-.299-7.808 6.038-12.964 13.236-10.768M26.917 166.567c-4.587 1.127-5.12 7.723-.778 9.618 1.849.807 4.45.243 5.843-1.268.836-.907.844-1.057.084-1.575-.539-.367-.615-.38-.753-.134-2.084 3.725-7.363 1.648-6.464-2.542.614-2.862 4.403-3.856 5.972-1.566.365.532.401.546.834.323.865-.448.897-.635.241-1.401-1.174-1.372-3.067-1.926-4.979-1.455m27.448.011c-3.086.782-4.592 4.264-3.151 7.285 1.578 3.309 6.438 3.65 8.685.61l.451-.61-.61-.465-.61-.466-.477.576c-.263.316-.479.625-.482.685s-.394.305-.87.542c-2.46 1.226-4.968-.394-4.968-3.208 0-3.243 3.318-4.858 5.658-2.753.591.531.927.721 1.15.651 2.69-.854-1.883-3.581-4.776-2.847m29.468-.014c-3.754.956-5.061 5.772-2.329 8.587 2.271 2.34 6.674 1.664 8.164-1.255 2.001-3.917-1.578-8.416-5.835-7.332m30.084.002c-2.38.612-3.75 2.414-3.75 4.934 0 1.04.418 2.667.686 2.667.081 0 .147.106.147.237 0 .913 2.386 2.097 4.222 2.094 2.645-.003 5.308-2.072 4.008-3.112-.501-.401-.897-.5-.897-.225 0 .331-1.105 1.402-1.748 1.695-2.345 1.065-4.752-.673-4.752-3.43 0-3.196 3.421-4.722 5.757-2.568.516.475.82.64 1.047.568 2.666-.846-1.868-3.593-4.72-2.86m92.833.017c-4.676 1.196-5.145 7.623-.703 9.632 1.777.803 4.789.109 5.93-1.367 3.115-4.029-.352-9.511-5.227-8.265m-170.917 4.908v4.842h3.834H43.5v-.666V175h-2.997-2.997l-.045-4.125-.044-4.125-.792-.051-.792-.051v4.843M46 171.5v4.852l.792-.051.791-.051v-4.75-4.75l-.791-.051-.792-.051v4.852m17.333.009v4.843l.792-.051.792-.051.047-1.697.047-1.697.98-.849.98-.849.378.546c.207.3 1.044 1.465 1.86 2.588l1.483 2.041h.821c1.1 0 1.123.058-1.292-3.286l-2.112-2.925.987-.893a60.08 60.08 0 0 1 1.854-1.602c1.095-.897 1.09-.96-.064-.96-1.002 0-1.233.138-3.219 1.931l-1.584 1.418-1 .89-.046-2.119-.047-2.12h-.828-.829v4.842m29.834-.009v4.833H94h.833v-2.083-2.083h1.582 1.581l.392.625a40.52 40.52 0 0 1 .902 1.541c1.195 2.152 1.047 1.998 1.918 1.999.445.001.792-.076.792-.174 0-.161-.879-1.849-1.166-2.241-.655-.893-.987-1.766-.709-1.866 2.118-.764 2.493-3.572.655-4.904l-.663-.48h-3.475-3.475v4.833m32.363-3.792l-2.262 4.664c-2.056 4.213-2.002 3.995-.976 3.929l.791-.051.584-1.167.583-1.166 2.457-.046 2.458-.047.621 1.255.62 1.254h.797c1.028 0 1.144.386-1.495-4.993l-2.291-4.672h-.697c-.69-.001-.7.007-1.19 1.04m8.97 3.795v4.836l3.875-.044 3.875-.045v-.583-.584l-3.042-.045-3.041-.046v-4.162-4.163h-.834-.833v4.836m10.167-.003v4.833h3.833 3.833v-.666V175h-3-3v-4.167-4.166h-.833-.833v4.833m14.575-4.233a6.65 6.65 0 0 0 .335 1.125c.123.288.613 1.762 1.089 3.275 1.576 5.001 1.386 4.576 2.067 4.635.494.042.626-.016.755-.334.339-.837 2.012-6.176 2.017-6.438.008-.422.207-.001.657 1.387l.591 1.75c.117.32.427 1.277.688 2.124l.476 1.541.611.001h.612l1.114-3.458 1.513-4.638c.22-.648.4-1.267.4-1.375 0-.272-1.492-.26-1.57.013-.279.977-1.011 3.323-1.184 3.792-.118.32-.36 1.056-.538 1.633l-.323 1.051-.378-1.217-1.077-3.301-.698-2.083-.741-.049-.741-.049-.558 1.799c-.307.989-.658 2.061-.781 2.382s-.346.977-.497 1.459c-.342 1.09-.314 1.099-.741-.25l-1.041-3.25-.685-2.125h-.742-.742l.112.6m15.258 4.236v4.836l4.125-.044 4.125-.045v-.583-.584l-3.292-.045-3.291-.045v-1.58-1.58H178h1.833v-.666-.667H178h-1.833v-1.25V168h3.083 3.083v-.667-.666h-3.916-3.917v4.836m16.833-.003v4.833h2.51c3.335 0 4.169-.214 5.463-1.405 1.807-1.662 1.806-5.113-.001-6.916-1.131-1.129-1.96-1.345-5.143-1.345h-2.829v4.833m30.667 0v4.833h.833.834V171.5v-4.833h-.834H222v4.833m3.167-4.169V168h2 2v4.167 4.166h.75.75v-4.161-4.161l1.958-.047 1.958-.047v-.584-.583l-4.708-.044-4.708-.045v.67m19.942-.551c-.062.062-.31.531-.55 1.041l-2.248 4.646c-2.127 4.366-2 3.866-.983 3.866h.829l.609-1.25.61-1.25h2.452 2.452l.61 1.25.61 1.25h.833c.949 0 .946.006.509-.81-.179-.334-1.228-2.463-2.333-4.731l-2.009-4.125h-.639c-.351 0-.69.051-.752.113m8.558 4.72v4.833h3.833 3.833v-.666V175h-3.083-3.083v-4.167-4.166h-.75-.75v4.833m10.039-.042l.044 4.792 3.875.045 3.875.044v-.669-.67h-3.083-3.084v-4.167-4.166h-.836-.835l.044 4.791M87.062 168.45c2.82 1.986 1.414 6.717-1.996 6.717-3.203 0-4.577-4.395-2.051-6.558 1.088-.931 2.852-1.001 4.047-.159m121.849-.504c1.662.275 2.881 2.487 2.444 4.438-.889 3.972-6.31 3.555-6.656-.512-.228-2.692 1.564-4.363 4.212-3.926m-108.987.463c.511.511.534 1.345.053 1.922-.333.401-.427.417-2.744.477l-2.4.062v-1.435V168h2.341c2.263 0 2.355.014 2.75.409m97.166-.096c2.467 1.121 2.574 5.005.171 6.246-.51.264-1.073.355-2.541.411l-1.887.072v-3.521V168l1.792.004c1.377.002 1.948.074 2.465.309m-69.423 2.437l.777 1.583h-1.714-1.715l.376-.791c.793-1.67 1.302-2.571 1.398-2.475.055.055.45.813.878 1.683m119.001-.208l.802 1.666c.032.069-.698.125-1.623.125s-1.68-.041-1.68-.092c0-.193 1.556-3.241 1.654-3.241.057 0 .438.694.847 1.542" fill="#040471"/><path d="M146 57.046c-7.449 2.549-8.579 12.474-1.923 16.888 5.925 3.929 14.09-.669 14.09-7.934 0-6.33-6.295-10.963-12.167-8.954m-17.333 15.371l-.12 14.416c-.066 0-.497-.369-.958-.82-6.426-6.282-16.656-8.554-25.5-5.663-2.884.943-2.764.832-4.549 4.192L95.968 87.5h-2.45-2.45l-.585.625c-9.186 9.817-10.232 28.384-2.242 39.775 9.61 13.702 26.878 16.344 38.874 5.949.751-.65 1.407-1.182 1.458-1.182s.094 1.35.094 3v3h5.833 5.833V109 79.333h1.417 1.417V77.18v-2.153l-1.463-1.472c-4.208-4.233-4.501-10.452-.69-14.622l.853-.933h-6.6-6.6v14.417m-101 26.916v39.334h4.916H37.5v-29.663-29.662l2.542-.046 2.541-.046.043-9.625.043-9.625h-7.501-7.501v39.333m40.5-20.09c-4.74.6-8.806 2.471-13.531 6.226-1.566 1.245-1.469 1.382-1.469-2.08V80.5H46h-7.167v29.083 29.084H46h7.167l.005-11.959c.007-17.846.206-21.886 1.227-24.924 1.825-5.427 5.353-8.651 10.172-9.292 5.486-.73 9.747 2.446 10.744 8.008.517 2.884.565 4.482.635 21.125l.071 17.042h7.156 7.156v-3.141-3.141l-.862-.984c-9.582-10.938-10.548-29.606-2.134-41.248l.792-1.096-.439-.778c-.429-.758-.46-.778-1.248-.778l-.808-.001.355-.602c.41-.696.418-.679-.943-2.027-4.296-4.253-10.746-6.404-16.879-5.628m108.416-.066c-17.326 1.743-28.248 19.058-24.169 38.318 1.753 8.281 8.02 16.369 15.503 20.008 9.534 4.638 20.379 3.161 28.112-3.83 1.533-1.385 1.471-1.469 1.471 1.994v3h4.583 4.584v-25.084V88.5h2.583 2.583v-4-4h-7.166-7.167v3.167c0 1.741-.05 3.166-.111 3.166s-.604-.436-1.208-.969c-5.695-5.032-12.606-7.39-19.598-6.687m-34.916 30.406v29.084h7.25 7.25v-4.799-4.798l-.845-1.327c-6.657-10.45-6.692-25.995-.083-36.462l.928-1.469v-4.656V80.5h-7.25-7.25v29.083m-26.584-17.082c10.777 1.189 17.042 12.226 13.317 23.465-4.784 14.437-25.167 14.517-30.032.117-4.3-12.725 4.361-24.944 16.715-23.582m70.538.264c8.707 1.786 13.89 10.558 12.144 20.554-3.022 17.301-26.743 18.317-31.086 1.332-3.395-13.275 6.303-24.479 18.942-21.886m107.296 44.651c-13.393 2.12-17.69 15.963-7.118 22.931 5.363 3.535 16.174 3.438 20.511-.185l.393-.328-.938-1.013c-1.005-1.085-1.937-2.446-2.345-3.422l-.251-.602-.623.547c-5.133 4.506-14.841 1.653-15.476-4.548-.673-6.561 9.128-10.593 15.086-6.207l.998.734.419-.834c.589-1.173 1.359-2.261 2.321-3.284.979-1.039 1.034-.95-1.311-2.104-3.447-1.696-7.71-2.311-11.666-1.685m22.444.01c-9.283 1.695-14.428 10.265-10.7 17.824 3.959 8.029 15.798 10.264 23.732 4.48l.43-.313.005-9.34.005-9.34-1.067-.702c-3.569-2.346-8.345-3.35-12.405-2.609m27.617.068c-1.863.393-3.251 1.026-4.853 2.213l-1.292.958v-1.416-1.416h-3.583-3.583v12.25 12.25h3.583 3.583l.005-6.291c.008-8.607.298-10.157 2.208-11.793 2.65-2.27 7.026-1.773 8.35.948.665 1.367.764 2.682.767 10.178l.004 6.958h3.583 3.583v-6.727c0-7.103.064-7.879.771-9.456 1.857-4.137 8.364-4.568 9.935-.659.364.905.374 1.102.427 8.884l.054 7.958h3.574 3.573l-.001-8.125c-.002-11.137-.204-12.306-2.498-14.43-4.159-3.851-11.851-3.354-16.077 1.037-.77.801-.953.837-1.266.252-1.557-2.909-6.413-4.509-10.847-3.573m-21.96 5.776c1.962.582 3.725 1.998 4.574 3.675.748 1.478.743 4.806-.009 6.296-3.036 6.018-13.208 5.147-14.854-1.272-1.484-5.784 4.125-10.526 10.289-8.699m-46.101 12.936c-2.816 1.012-3.421 4.175-1.129 5.904 3.016 2.274 7.724-.411 6.472-3.692-.712-1.863-3.315-2.941-5.343-2.212m-250.163.703c-1.004.585-1.4 1.302-1.411 2.558-.014 1.533.354 2.157 1.692 2.87.689.367 247.465.54 247.465.173 0-.086-.083-.208-.184-.271-1.127-.696-1.251-4.641-.167-5.312.102-.062.184-.184.184-.27 0-.098-46.417-.153-123.458-.145l-123.458.011-.663.386" fill="#ab0404"/><path d="M53.788 44.12a6.22 6.22 0 0 0 1.167.002c.345-.036.103-.067-.538-.067s-.925.028-.629.065m-1.88 5.926c-.045.117-.06 1.748-.033 3.625l.049 3.412.038-3.535.038-3.535 1.375-.056 1.375-.056-1.38-.034c-.992-.024-1.403.026-1.462.179M66 51.132c0 .12-.495.205-1.375.236l-1.375.049-.083 3.526.041 3.448c.069-.042.125-1.61.125-3.484V51.5h1.324c1.197 0 1.73-.168 1.443-.456-.055-.055-.1-.015-.1.088m-1.424 8.118l.049 3.281v-6.667c-.027-1.804-.049-.281-.049 3.386m7.167.083l.048 3.375v-6.75c-.026-1.856-.048-.337-.048 3.375m40.873-6.081c-.153.32-.243.581-.201.581.114 0 .62-1.02.544-1.096-.036-.037-.191.195-.343.515m-53.571.248c0 .413.033.581.073.375a2.42 2.42 0 0 0 0-.75c-.04-.206-.073-.038-.073.375m31.469.25c0 .092.144.429.319.75s.32.508.32.417-.144-.43-.32-.75-.319-.509-.319-.417m14.069.917c-.232.458-.384.833-.339.833s.274-.375.506-.833.385-.834.339-.834-.273.375-.506.834m6.75 1c-.277.55-.467 1-.421 1s.31-.45.588-1 .467-1 .421-1-.31.45-.588 1m-27.486-.584c0 .092.144.429.32.75s.319.509.319.417-.144-.429-.319-.75-.32-.508-.32-.417m-25.774.625l-.49.542.542-.49c.505-.456.618-.593.49-.593-.029 0-.273.243-.542.541m24.465 5.417l.039 5.792.086-5.571.087-5.57.403.862c.222.473.433.831.47.795.078-.078-.925-2.1-1.042-2.1-.045 0-.064 2.607-.043 5.792m20.712-3.958c-.232.458-.385.833-.339.833s.273-.375.506-.833.384-.834.339-.834-.274.375-.506.834m6.667 1.166c-.233.459-.385.834-.339.834s.273-.375.505-.834.385-.833.339-.833-.273.375-.505.833m-24.402.25c0 .092.181.504.402.917s.401.675.401.583-.18-.504-.401-.916-.402-.675-.402-.584m7.334 0c0 .092.218.58.484 1.084s.485.841.485.75-.218-.58-.485-1.084-.484-.841-.484-.75M63.232 61.5c0 1.237.026 1.744.058 1.125a26.38 26.38 0 0 0 0-2.25c-.032-.619-.058-.113-.058 1.125m38.351-1.167c-.232.459-.384.834-.339.834s.274-.375.506-.834.385-.833.339-.833-.273.375-.506.833m-16.902-.583c0 .092.143.429.319.75s.319.508.319.417-.143-.43-.319-.75-.319-.509-.319-.417m23.736 1.417c-.143.275-.221.5-.176.5s.2-.225.342-.5.221-.5.176-.5-.2.225-.342.5m-21.401.583c0 .092.218.579.484 1.083s.484.842.484.75-.218-.579-.484-1.083-.484-.842-.484-.75m13.234 1.083c-.232.459-.385.834-.339.834s.273-.375.506-.834.384-.833.339-.833-.274.375-.506.833m-48.342.045c-.044.116-.061 2.048-.036 4.292l.045 4.08 2.125.008 2.125.008-2.089-.055-2.089-.054.047-4.245-.128-4.034m2.969-.092a2.94 2.94 0 0 0 .834-.002c.205-.04-.003-.071-.461-.07s-.626.034-.373.072m40.14.297c0 .092.33.804.733 1.584s.733 1.341.733 1.25-.33-.805-.733-1.584-.733-1.341-.733-1.25m12.066.584c-.142.275-.221.5-.175.5s.2-.225.342-.5.221-.5.175-.5-.199.225-.342.5m-20.569-.084c0 .092.144.429.319.75s.32.509.32.417-.144-.429-.32-.75-.319-.508-.319-.417m-26.014 1c.311.321.603.584.649.584s-.171-.263-.482-.584-.603-.583-.649-.583.171.262.482.583m38.333.917c-.277.55-.467 1-.421 1s.31-.45.588-1 .467-1 .421-1-.31.45-.588 1m-10.151-.25c0 .092.18.504.401.917s.402.675.402.583-.181-.504-.402-.917-.401-.675-.401-.583m16.901 1.25c-.232.458-.384.833-.339.833s.274-.375.506-.833.385-.833.339-.833-.273.375-.506.833m-42.198.25c.001.55.032.755.069.455s.036-.749-.002-1-.068-.005-.067.545m-1.673.583c0 .413.033.582.072.375a2.36 2.36 0 0 0 0-.75c-.039-.206-.072-.037-.072.375m3.002.084c.002.458.034.626.072.372s.038-.628-.002-.833-.071.002-.07.461m7.161 0c.002.366.036.497.076.289a1.81 1.81 0 0 0-.003-.666c-.042-.16-.074.01-.073.377m16.307-.334c0 .092.18.504.401.917s.402.675.402.583-.181-.504-.402-.916-.401-.675-.401-.584m-5.81.75c0 .321.034.452.076.292s.042-.423 0-.583-.076-.03-.076.291m21.795 1.334c-.278.55-.468 1-.422 1s.311-.45.588-1 .468-1 .422-1-.311.45-.588 1m-13.985-.75c0 .091.218.579.485 1.083s.484.842.484.75-.218-.579-.484-1.083-.485-.842-.485-.75m-18.002.593c-.007.143.103.405.246.583.255.318.257.318.106-.01L72.286 69c-.08-.216-.095-.215-.106.01m16.973.448c.08.576.092.587.147.147.033-.264-.006-.545-.087-.625s-.109.12-.06.478m-28.413.25l-.49.542.542-.49c.505-.456.618-.593.489-.593-.029 0-.272.243-.541.541m42.01 2.125c-.232.459-.385.834-.339.834s.273-.375.506-.834.384-.833.339-.833-.274.375-.506.833m-14.737.864c-.295.475-.435.779-.311.676.237-.196 1.037-1.54.917-1.54-.038 0-.311.389-.606.864m3.837-.78c0 .091.255.654.567 1.25s.567 1.008.567.916-.255-.654-.567-1.25-.567-1.008-.567-.916m-15.808.198c.16.042.423.042.583 0s.029-.076-.292-.076-.452.034-.291.076m1.666 0a1.37 1.37 0 0 0 .584 0c.16-.042.029-.076-.292-.076s-.452.034-.292.076M64.5 72.23c0 .179.496 1.103.592 1.103.046 0-.041-.243-.192-.541-.31-.609-.4-.736-.4-.562m.908 1.656c.235.393.245.515.061.75-.197.252-.189.257.073.052.366-.288.362-.345-.065-.855l-.35-.416.281.469m21.086.739l-.911.958.959-.911.958-.958c0-.124-.159.021-1.006.911m-19.001-.083l.792.791c.125 0-.007-.149-.743-.84l-.792-.743.743.792m33.757.125c-.142.275-.221.5-.175.5s.199-.225.342-.5.221-.5.175-.5-.2.225-.342.5m-7.847.552c.052.166-.019.522-.158.792s-.216.489-.17.489c.26 0 .592-1.027.419-1.295s-.179-.267-.091.014m6.514 1.948c-.143.275-.221.5-.176.5s.2-.225.342-.5.221-.5.176-.5-.2.225-.342.5m-41.042-.052c.16.042.423.042.583 0s.029-.076-.291-.076-.452.034-.292.076m-2.164.171c.253.039.628.038.833-.002s-.002-.071-.461-.07-.626.034-.372.072m35.372.881c-.232.458-.384.833-.339.833s.274-.375.506-.833.385-.834.339-.834-.273.375-.506.834m-15.786-.211c.485.034 1.235.034 1.667 0s.036-.062-.881-.062-1.27.029-.786.062M91.083 80c-.232.458-.384.833-.339.833s.274-.375.506-.833.385-.833.339-.833-.273.375-.506.833m7.5-.333c-.142.275-.221.5-.175.5s.2-.225.342-.5.221-.5.175-.5-.199.225-.342.5m-8.666 2.5c-.233.458-.385.833-.339.833s.273-.375.505-.833.385-.834.339-.834-.273.375-.505.834m7.166.333c-.232.458-.384.833-.339.833s.274-.375.506-.833.385-.833.339-.833-.273.375-.506.833m-8.333 1.833c-.142.275-.221.5-.175.5s.199-.225.342-.5.221-.5.175-.5-.2.225-.342.5m6.833 1c-.232.459-.384.834-.339.834s.274-.375.506-.834.385-.833.339-.833-.273.375-.506.833m112.291 29.209l.042 24.875.042-24.789.043-24.79 4.791-.046 4.791-.047-4.875-.039-4.875-.039.041 24.875m26.237-24.764c-.061.061-.111 4.26-.111 9.332v9.22l-8.292.045-8.291.045 8.375.04 8.375.04v-9.331-9.331l4.791-.046 4.792-.047-4.764-.039c-2.62-.022-4.814.011-4.875.072m24.431 12.01a7.25 7.25 0 0 0 1.25 0c.343-.036.062-.065-.625-.065s-.969.029-.625.065m36.416-.001a5.31 5.31 0 0 0 1.084 0c.298-.037.054-.067-.542-.067s-.84.03-.542.067m23.167 0a5.3 5.3 0 0 0 1.083 0c.298-.037.054-.067-.541-.067s-.84.03-.542.067m26.504.002c.392.035.992.035 1.334-.001s.02-.065-.713-.064-1.013.03-.621.065m24.996-.002a5.3 5.3 0 0 0 1.083 0c.298-.037.054-.067-.541-.067s-.84.03-.542.067m-94.715.921c-.043.115-.06 8.421-.036 18.459l.044 18.25.041-18.373.041-18.372 4.458-.047 4.459-.047-4.464-.039c-3.446-.03-4.482.008-4.543.169m9.126 2c-.041 2.431-.051 2.419 1.054 1.25l.827-.875-.87.822-.87.822-.052-2.072-.053-2.072-.036 2.125m-33.744-.779c-.623.338-.585.478.041.154.275-.142.5-.294.5-.337 0-.108-.018-.101-.541.183m53.534 1.113c.691.736.841.868.841.743 0-.027-.357-.383-.792-.792l-.792-.743.743.792m23.924.291c.451.459.858.834.904.834s-.286-.375-.737-.834-.859-.833-.904-.833.286.375.737.833m-19.672.875l-.995 1.042 1.042-.995c.573-.547 1.042-1.016 1.042-1.041 0-.124-.165.027-1.089.994m-37.411-.822c0 .041.275.284.612.541s.559.382.494.278c-.131-.214-1.106-.935-1.106-.819m110.083.781c.358.366.688.666.734.666s-.209-.3-.567-.666-.689-.667-.735-.667.21.3.568.667m-108.09.875c.69.736.84.868.84.743 0-.027-.356-.383-.792-.792l-.791-.743.743.792m-26.999.416l-.911.959.958-.911c.891-.847 1.035-1.006.911-1.006-.026 0-.457.431-.958.958m83.778.123c.056.146-.038.43-.21.634l-.312.368.375-.317c.397-.337.482-.68.21-.848-.095-.059-.122.01-.063.163m1.301.627l-.49.542.542-.49c.505-.456.618-.593.489-.593-.029 0-.272.243-.541.541m-87.359 0c-.722.945-1.103 1.509-.961 1.422.197-.119 1.304-1.63 1.194-1.63-.04 0-.145.094-.233.208m.354 1.497c-.683.927-1.262 1.849-1.023 1.628.2-.185 1.935-2.666 1.864-2.666-.042 0-.421.467-.841 1.038m84.804-.58c-.432.623-.572.875-.488.875.039 0 .27-.3.513-.667.493-.745.471-.925-.025-.208m.833.833c-.431.623-.572.875-.487.875.039 0 .269-.3.512-.666.493-.746.472-.926-.025-.209m16.088-.34c.208.04.508.038.667-.003s-.01-.075-.377-.073-.497.036-.29.076m24.417.502c.254.038.629.037.834-.003s-.003-.071-.461-.069-.626.033-.373.072m-111.089.334a6.31 6.31 0 0 0 1.167.001c.345-.036.103-.066-.538-.067s-.925.029-.629.066m98.584.546c0 .321.034.452.076.292a1.37 1.37 0 0 0 0-.584c-.042-.16-.076-.029-.076.292m20.957.625l-1.079 1.125 1.125-1.079c.619-.593 1.125-1.099 1.125-1.125 0-.122-.17.034-1.171 1.079m-89.704-.696c-.646.35-.573.471.083.137.629-.319.74-.402.528-.393-.084.004-.359.119-.611.256m7.458.904c.358.367.689.667.735.667s-.21-.3-.568-.667-.688-.666-.734-.666.209.3.567.666m23.75-.083c.311.321.603.583.649.583s-.171-.262-.482-.583-.603-.583-.649-.583.171.262.482.583m-77.675.433c-.191.375-.319.711-.284.746s.226-.272.426-.683c.454-.935.331-.99-.142-.063m68.252.192l-.827.875.875-.827c.482-.455.875-.849.875-.875 0-.124-.154.014-.923.827m47.799-.125c.002.367.036.497.076.29s.038-.508-.004-.667-.074.01-.072.377m-30.262.174c-.392.821-.337.961.072.185.186-.352.309-.67.273-.706s-.192.199-.345.521m10.027.034c-.46.5-1.484 1.896-1.193 1.625.255-.235 1.734-2.083 1.669-2.083-.03 0-.244.206-.476.458m15.193.125c.311.321.603.584.648.584s-.171-.263-.482-.584-.603-.583-.648-.583.171.263.482.583m-32.384.498c.152.32.306.552.342.516.077-.077-.429-1.097-.543-1.097-.042 0 .048.262.201.581m-54.283.169c.311.321.603.583.649.583s-.171-.262-.482-.583-.603-.583-.649-.583.171.262.482.583m109.537-.161c.249.262.483.443.519.402s-.167-.255-.453-.477l-.52-.402.454.477m-124.297.786l-.49.542.542-.49c.505-.456.618-.594.489-.594-.029 0-.272.244-.541.542m57.085.641c-.191.376-.32.712-.285.746s.227-.272.426-.682c.455-.935.332-.99-.141-.064m-58.491 1.526c-.266.573-.525 1.266-.577 1.541s.046.124.217-.335.474-1.153.672-1.542.318-.706.265-.706-.312.469-.577 1.042m85.27.048c-.159.414-.118.415 10.146.369l9.833-.045-9.953-.04c-8.768-.036-9.941-.07-9.857-.291.053-.137.058-.25.013-.25s-.128.116-.182.257m-67.008.41c.061.229.18.529.265.667.108.173.121.123.043-.167-.061-.229-.18-.529-.265-.667-.108-.173-.121-.123-.043.167m-29.391 1.333c0 .321.035.452.077.292a1.4 1.4 0 0 0 0-.583c-.042-.161-.077-.029-.077.291m-13.498-.208l8.291.045.044 10.873.044 10.874.04-10.959.041-10.958-8.375.04-8.375.04 8.29.045m14.665.375c0 .321.034.452.076.292a1.37 1.37 0 0 0 0-.584c-.042-.16-.076-.029-.076.292m58.007.167c0 .412.032.581.072.375a2.36 2.36 0 0 0 0-.75c-.04-.207-.072-.038-.072.375m23.532 8.75l.047 4.696v-9.5c-.026-2.583-.047-.421-.047 4.804m4.461-8.75c0 .32.034.452.076.291s.042-.423 0-.583-.076-.029-.076.292m-18.5.166c0 .321.034.452.076.292s.042-.423 0-.583-.076-.029-.076.291m-23.663.584c.002.366.036.497.076.289a1.83 1.83 0 0 0-.004-.666c-.042-.16-.074.01-.072.377m77.208.583c.544.55 1.027 1 1.073 1s-.362-.45-.907-1-1.027-1-1.073-1 .362.45.907 1M239.066 121c0 1.329.026 1.873.058 1.208s.031-1.752 0-2.416-.058-.121-.058 1.208m1.167 0c0 1.329.026 1.873.057 1.208s.032-1.752 0-2.416-.057-.121-.057 1.208m84.832.167c0 1.237.027 1.743.059 1.125a26.38 26.38 0 0 0 0-2.25c-.032-.619-.059-.113-.059 1.125M249.396 121c0 1.054.027 1.485.06.958a18.01 18.01 0 0 0 0-1.916c-.033-.527-.06-.096-.06.958m76.835.167c0 1.146.027 1.614.059 1.041s.033-1.51 0-2.083-.059-.104-.059 1.042M269.395 121c0 .962.028 1.356.061.875s.034-1.269 0-1.75-.061-.088-.061.875m38.35 8.417l.047 4.946v-10c-.026-2.72-.047-.446-.047 5.054m52.588-9.698c0 .029.244.272.542.541l.542.49-.49-.542c-.456-.505-.594-.618-.594-.489m-76.372 9.948l.081 9.666c.068 0 .125-4.35.125-9.666l-.081-9.667c-.044 0-.101 4.35-.125 9.667m14.616-1.584l.048 4.03v-8.166c-.026-2.217-.048-.355-.048 4.136m80.923-7.198c0 .029.244.273.542.542l.541.49-.489-.542c-.456-.505-.594-.618-.594-.49m1.418 1.698c.668.928.853 1.1.481.447-.174-.304-.461-.679-.638-.833-.188-.163-.122-.001.157.386M240.372 124c0 .321.034.452.076.292a1.37 1.37 0 0 0 0-.584c-.042-.16-.076-.029-.076.292m94.739-.389a.46.46 0 0 0-.108.292c.001.108.055.097.134-.027.103-.162 3.334-.217 14.872-.251l14.741-.044-14.764-.04c-8.12-.023-14.814.009-14.875.07m-95.906.556c0 .32.035.452.077.291a1.4 1.4 0 0 0 0-.583c-.042-.16-.077-.029-.077.292m87.167 0c0 .32.034.452.076.291s.042-.423 0-.583-.076-.029-.076.292m43.128.5c.321.175.658.319.75.319s-.096-.144-.417-.319-.658-.32-.75-.32.096.144.417.32m-101.217 1.418c-.153.32-.243.582-.201.582.114 0 .62-1.021.543-1.097-.036-.036-.19.196-.342.515m104.71.79c.691.736.84.868.84.743 0-.027-.356-.383-.791-.792l-.792-.743.743.792m-121.994.421c.101.208.611.815 1.134 1.347.823.839.849.855.197.121a30.27 30.27 0 0 1-1.135-1.347c-.25-.33-.317-.371-.196-.121M266 129.041c-.687.656-1.025 1.034-.75.839.491-.347 2.228-2.053 2.077-2.04-.042.004-.639.544-1.327 1.201m70.959-.791c.191.275.669.8 1.064 1.167.608.565.581.514-.182-.334-1.205-1.34-1.286-1.416-.882-.833m25.028.042l-.404.458.461-.406.46-.406.623.573.623.572-.574-.625c-.687-.747-.678-.745-1.189-.166m-121.725.041c.062.23.181.529.266.667.107.174.121.123.043-.167a3.03 3.03 0 0 0-.266-.666c-.107-.174-.12-.123-.043.166m142.61.5c0 .321.034.452.076.292s.042-.423 0-.583-.076-.03-.076.291m-8.663.25c.002.367.036.497.076.29s.038-.507-.004-.667-.074.011-.072.377m-132.542-.355c0 .18.828 1.772.922 1.772.046 0-.115-.394-.356-.875-.465-.926-.566-1.086-.566-.897m86 .333c0 .181.828 1.772.922 1.772.046 0-.115-.393-.356-.875-.465-.925-.566-1.086-.566-.897m32.908.814l-.658.708.708-.658c.659-.613.785-.758.659-.758-.027 0-.346.318-.709.708m13.425.091c0 .104-.241.473-.536.82-.48.565-.487.588-.068.214.528-.47.846-.981.701-1.125-.053-.054-.097-.012-.097.091m-15.167 1.784c-.405.412-.698.75-.652.75s.414-.338.819-.75.699-.75.653-.75-.415.337-.82.75M243.5 132c.196.275.394.5.439.5s-.077-.225-.272-.5-.394-.5-.44-.5.077.225.273.5m14.958-.377c.482.034 1.269.034 1.75 0s.088-.061-.875-.061-1.356.027-.875.061m98.286 1.085l-.827.875.875-.827c.813-.768.951-.923.827-.923-.027 0-.42.394-.875.875m-9.869-.593c.16.042.423.042.583 0s.03-.076-.291-.076-.452.034-.292.076m-104.035.953c.313.436.641.837.729.892s-.096-.258-.409-.695-.641-.837-.729-.891.096.258.409.694m114.491.351l-.567.585.403.373.404.373-.315-.379c-.313-.376-.311-.382.248-.958.309-.319.524-.58.478-.58s-.339.264-.651.586m-111.581 1.248c.544.55 1.027 1 1.073 1s-.362-.45-.906-1-1.027-1-1.073-1 .362.45.906 1m85.743.041c.691.736.84.869.84.743 0-.026-.356-.383-.791-.791l-.792-.743.743.791m-58.587.167l-.489.542.541-.49c.505-.456.619-.594.49-.594-.029 0-.273.244-.542.542m83.427.01c0 .029.244.273.542.542l.542.49-.49-.542c-.456-.505-.594-.618-.594-.49m-26.166.167c0 .029.243.273.541.542l.542.489-.49-.541c-.456-.505-.593-.619-.593-.49m28.159.656c.409.436.765.792.792.792.125 0-.007-.15-.743-.84l-.792-.743.743.791m21.341.875c-.405.413-.699.75-.653.75s.414-.337.819-.75.699-.75.653-.75-.414.338-.819.75m-35.375-.132a2.36 2.36 0 0 0 .75 0c.206-.04.037-.072-.375-.072s-.582.032-.375.072m2.502 0a1.81 1.81 0 0 0 .666-.003c.16-.042-.01-.074-.377-.073s-.497.036-.289.076m15.498 0a2.36 2.36 0 0 0 .75 0c.206-.04.037-.072-.375-.072s-.582.032-.375.072m2.5 0a2.36 2.36 0 0 0 .75 0c.206-.04.037-.072-.375-.072s-.582.032-.375.072m-35.889.608c-.048.124-.06.706-.027 1.292l.06 1.066.032-1.201.032-1.201 1.125-.058 1.125-.058-1.13-.033c-.821-.024-1.154.029-1.217.193m6.145-.102c.53.033 1.355.033 1.833-.001s.044-.061-.964-.06-1.4.028-.869.061m-66.256.805c-.623.338-.585.479.041.155.275-.143.5-.294.5-.338 0-.107-.018-.101-.541.183m-1.292.655c-.229.131-.342.238-.25.238s.354-.107.583-.238.342-.239.25-.239-.354.108-.583.239m38.917.336c.183.149.483.345.666.435l.334.164-.334-.272c-.183-.149-.483-.345-.666-.435l-.334-.163.334.271m65.409.455c.691.736.841.869.841.743 0-.026-.357-.383-.792-.791l-.792-.743.743.791m-114.866.91c.208.04.508.038.667-.003s-.01-.075-.377-.073-.497.036-.29.076m3.998 0a2.42 2.42 0 0 0 .75 0c.207-.04.038-.073-.375-.073s-.581.033-.375.073" fill="#6c6caf"/><path d="M148.042 56.623c.435.034 1.148.034 1.583 0s.079-.063-.792-.063-1.227.028-.791.063m-12.815 1.335l6.417.336c-.206.262-.2.268.064.061.617-.484.133-.521-6.416-.482l-6.709.04 6.644.045m20.106 1.292l.989.917c.046 0-.324-.413-.822-.917l-.989-.917c-.045 0 .324.413.822.917m-13.813.836c-.507.578-1.107 1.581-.945 1.581.046 0 .199-.224.341-.498s.488-.761.771-1.083.477-.586.431-.586-.315.264-.598.586m-110.134-.128h7.5c2.034-.026.322-.048-3.803-.048l-3.697.048m108.106 1.058c-.192.376-.32.712-.285.746s.227-.272.426-.682c.454-.935.331-.99-.141-.064m18.034 1.401c0 .091.1.429.224.75s.227.47.23.333-.098-.475-.224-.75-.229-.425-.23-.333m-17.68.859c-.097.352-.172.791-.164.974s.113-.079.235-.583c.253-1.049.198-1.357-.071-.391m-1.458 2.474c.001.642.031.884.067.538a6.31 6.31 0 0 0-.001-1.167c-.037-.296-.067-.013-.066.629m1.165.083c0 .596.031.84.068.542a5.3 5.3 0 0 0 0-1.083c-.037-.298-.068-.055-.068.541m18.67.167c0 .688.029.969.065.625a7.25 7.25 0 0 0 0-1.25c-.036-.344-.065-.062-.065.625m-.523 2.95c-.247.804-.127.923.133.133.11-.333.168-.638.128-.677s-.157.205-.261.544m-17.367.78c0 .179.496 1.103.592 1.103.046 0-.04-.243-.192-.541-.309-.609-.4-.736-.4-.562m15.077 2.978l-.827.875.875-.827c.813-.768.952-.923.827-.923-.026 0-.42.394-.875.875m-13.827.792l1.073 1c.046 0-.362-.45-.906-1l-1.073-1c-.046 0 .362.45.906 1m1.37 1.178c.13.167.222 1.067.256 2.5l.052 2.239.036-2.272c.032-1.991 0-2.299-.255-2.5s-.268-.197-.089.033m5.672.773a2.36 2.36 0 0 0 .75 0c.206-.04.037-.072-.375-.072s-.581.032-.375.072m-77.083 3.664c.16.042.423.042.583 0s.029-.076-.292-.076-.452.034-.291.076m37 0c.16.042.423.042.583 0s.029-.076-.292-.076-.452.034-.291.076m2.752.003c.207.04.507.038.666-.003s-.01-.075-.377-.073-.497.036-.289.076m65.914-.003a1.37 1.37 0 0 0 .584 0c.16-.042.029-.076-.292-.076s-.452.034-.292.076m2.834 0c.16.042.423.042.583 0s.029-.076-.292-.076-.452.034-.291.076M37.5 108.998v29.664l-4.958.046-4.959.047 5.042.039 5.042.039v-29.75l-.084-29.75c-.046 0-.083 13.349-.083 29.665m102.833 0v29.664l-5.875.046-5.875.046 5.959.04 5.958.039v-29.75l-.083-29.75c-.046 0-.084 13.349-.084 29.665m-101.625.627l-.041 29.208H46h7.333l-.04-12.875-.041-12.875-.044 12.792-.043 12.792h-7.166-7.165l-.042-29.125-.043-29.125-.041 29.208m14.496-26.26c-.037 2.921.045 3.403.485 2.841.205-.261.199-.267-.06-.064-.27.212-.291.041-.338-2.75l-.049-2.975-.038 2.948m88.337 26.26l-.041 29.208 7.375-.04 7.375-.039-7.291-.046-7.291-.045-.043-29.123-.043-29.123-.041 29.208m55.83-26.054l-.038 3.154-.458-.4-.458-.399.453.487c.637.684.643.656.588-2.847l-.049-3.149-.038 3.154m14.534.929c0 2.246.024 3.165.053 2.042a95.87 95.87 0 0 0 0-4.084c-.029-1.123-.053-.204-.053 2.042M99.041 81.542c-.234.294-.731 1.291-.643 1.291.04 0 .262-.337.493-.75.415-.743.471-.943.15-.541m21.806-.147c.172.154 1.153.605 1.153.53 0-.096-.924-.592-1.103-.592-.065 0-.088.028-.05.062m-38.514 1.157c0 .041.276.285.612.542s.559.381.495.277c-.132-.213-1.107-.935-1.107-.819m82.542.467c-.568.364-.752.608-.25.332.382-.21.981-.673.875-.676-.046-.002-.327.153-.625.344M97.417 84.5c-.233.458-.385.833-.339.833s.273-.375.505-.833.385-.833.339-.833-.273.375-.505.833m96.416-.614c0 .041.276.284.612.541s.559.382.495.278c-.132-.214-1.107-.935-1.107-.819m1.5 1.166c0 .029.244.273.542.542l.542.489-.49-.541c-.456-.505-.594-.619-.594-.49m-67.631 1.032c.433.449.812.783.843.741s-.323-.409-.786-.817l-.842-.741.785.817m32.628.708l-1.413 1.458 1.458-1.413c1.354-1.312 1.534-1.504 1.413-1.504-.025 0-.681.657-1.458 1.459M85.917 87c-.143.275-.221.5-.176.5s.2-.225.342-.5.221-.5.176-.5-.2.225-.342.5m10.166 0c-.142.275-.221.5-.175.5s.2-.225.342-.5.221-.5.175-.5-.199.225-.342.5m-5.677 1.042l-.489.541.541-.489c.298-.269.542-.513.542-.542 0-.129-.138-.015-.594.49m67.994.833c-.73.842-.947 1.125-.863 1.125.049 0 .366-.338.704-.75.626-.764.75-1.057.159-.375m-69.233.625c-.291.367-.491.667-.445.667s.321-.3.611-.667.491-.667.445-.667-.321.3-.611.667m66.73.708c-.574.974-.611 1.057-.319.709.338-.404.63-.917.521-.917-.044 0-.135.094-.202.208m-69.025.584c-.431.623-.572.875-.487.875.039 0 .269-.3.512-.667.493-.745.472-.925-.025-.208m1 .5c-.431.623-.572.875-.487.875.039 0 .269-.3.512-.667.493-.745.472-.925-.025-.208m68.336.583c-.764 1.213-1.081 1.792-.983 1.792.038 0 .326-.432.641-.959l.872-1.416c.165-.252.261-.459.213-.459s-.383.469-.743 1.042m-1.625.458c-.142.275-.221.5-.175.5s.2-.225.342-.5.221-.5.175-.5-.199.225-.342.5m-89.041.12c.252.038.664.038.916 0s.046-.07-.458-.07-.71.032-.458.07m47.253.001c.299.037.749.036 1-.002s.005-.068-.545-.067-.755.032-.455.069m68.663 0a5.31 5.31 0 0 0 1.084 0c.298-.037.054-.067-.542-.067s-.84.03-.542.067m-27.716 1.396c-.237.467-.403.878-.369.912s.263-.348.509-.85.412-.912.369-.912-.273.382-.509.85m-67.584.334c-.282.559-.486 1.044-.452 1.078s.3-.424.593-1.017.496-1.078.452-1.078-.311.457-.593 1.017m102.356-.455c.171.153 1.153.604 1.153.53 0-.096-.924-.592-1.103-.592-.066 0-.088.028-.05.062m-34.234 1.695c-.392.821-.337.961.073.185.186-.352.308-.67.272-.706s-.191.199-.345.521m-1.253 0c-.279.613-.226.743.076.186.141-.26.225-.504.187-.542s-.156.122-.263.356M191 95.052c0 .041.275.285.612.542s.559.381.495.277c-.132-.213-1.107-.935-1.107-.819m-88.754 1.823l-1.163 1.208 1.209-1.162c1.122-1.079 1.284-1.254 1.162-1.254-.026 0-.569.543-1.208 1.208m68.665 0l-.994 1.042 1.041-.995c.968-.924 1.118-1.089.995-1.089-.026 0-.494.469-1.042 1.042m-87.059-.19c-.103.295-.158.565-.122.601s.149-.177.251-.471.158-.565.122-.601-.148.177-.251.471M193.25 97c.451.458.858.833.904.833s-.286-.375-.737-.833-.859-.833-.904-.833.286.375.737.833M124 96.385c0 .029.244.273.542.542l.541.49-.489-.542c-.456-.505-.594-.618-.594-.49m1.769 2.032c.793 1.047.985 1.256.766.833-.095-.183-.448-.633-.784-1l-.612-.667.63.834m43.874-.125c-.479.579-.682.875-.6.875.046 0 .284-.263.529-.584.454-.595.509-.82.071-.291m-17.881.637c-.061.244-.079.476-.04.515s.121-.128.183-.373.079-.476.04-.515-.122.128-.183.373m-76.9.071c.008.433.271 1.144.276.75.003-.183-.059-.483-.138-.667-.088-.204-.141-.236-.138-.083m52.343 1.611c.3.565.569 1.003.598.974.074-.073-.551-1.261-.877-1.668-.147-.184-.021.129.279.694m24.212-.444c-.064.288-.081.558-.038.601s.125-.163.184-.455.075-.564.037-.602-.12.168-.183.456m16.833.166c-.142.275-.221.5-.175.5s.199-.225.342-.5.221-.5.175-.5-.2.225-.342.5m27.5 0c.142.275.296.5.342.5s-.033-.225-.175-.5-.296-.5-.342-.5.033.225.175.5M75.372 101.5c0 .321.034.452.076.292a1.37 1.37 0 0 0 0-.584c-.042-.16-.076-.029-.076.292m92.322-.076c-.28.613-.226.743.076.186.141-.26.225-.504.187-.542s-.157.122-.263.356m28.651-.007c0 .091.107.354.238.583s.239.342.239.25-.108-.354-.239-.583-.238-.342-.238-.25m-120.803 1.5c.002.366.036.497.076.289s.038-.507-.003-.666-.075.01-.073.377m121.648.75c0 .137.065.4.143.583.091.21.144.241.144.083 0-.137-.065-.4-.144-.583-.09-.21-.143-.241-.143-.083m-115.151.5c0 .32.034.452.076.291s.042-.423 0-.583-.076-.029-.076.292m46.489-.334c.009.433.271 1.145.277.75a1.96 1.96 0 0 0-.138-.666c-.088-.205-.142-.237-.139-.084m-52.81 1.25c.001.55.032.755.069.456s.037-.75-.001-1-.069-.006-.068.544m7.321-.083c0 .321.034.452.076.292a1.37 1.37 0 0 0 0-.584c-.042-.16-.076-.029-.076.292m67.509.583c.001.459.033.626.072.373a2.97 2.97 0 0 0-.003-.833c-.039-.205-.071.002-.069.46m1.161-.166c.002.366.036.497.076.289a1.83 1.83 0 0 0-.004-.666c-.042-.16-.074.01-.072.377m-98.167.666c.002.367.036.497.076.29s.038-.507-.003-.667-.075.011-.073.377m29.341.75c0 .504.032.711.07.459s.038-.665 0-.917-.07-.046-.07.458m83.329.167c0 .412.033.581.072.375a2.36 2.36 0 0 0 0-.75c-.039-.206-.072-.038-.072.375m-14.642 2.667c0 1.787.024 2.518.054 1.625s.03-2.357 0-3.25-.054-.163-.054 1.625m-69.834 0c0 1.695.025 2.389.055 1.541s.03-2.235 0-3.083-.055-.154-.055 1.542m116.143-2.334c0 .413.032.582.072.375a2.36 2.36 0 0 0 0-.75c-.04-.206-.072-.037-.072.375M75.915 122.75l.002 16 7.291.043 7.292.044v-3.232c0-2.882-.032-3.255-.292-3.452-.248-.187-.26-.185-.083.013.151.17.208 1.096.208 3.367v3.134h-7.165-7.166l-.044-15.959-.044-15.958.001 16m74.487-13.083c0 1.604.025 2.26.055 1.458a45.76 45.76 0 0 0 0-2.917c-.03-.802-.055-.145-.055 1.459m-21.179-1.5c0 .687.029.968.065.625a7.25 7.25 0 0 0 0-1.25c-.036-.344-.065-.063-.065.625m-75.833.583c.001.733.03 1.013.066.621s.034-.992-.002-1.334-.064-.02-.064.713m44.008.75c0 1.146.026 1.615.059 1.042s.032-1.511 0-2.084-.059-.104-.059 1.042m68.66 0c0 .779.029 1.098.064.708a9.56 9.56 0 0 0 0-1.416c-.035-.39-.064-.071-.064.708m31.987 0c0 .412.033.581.073.375a2.42 2.42 0 0 0 0-.75c-.04-.206-.073-.038-.073.375m-68.822 1.333c0 .688.029.969.065.625a7.25 7.25 0 0 0 0-1.25c-.036-.343-.065-.062-.065.625m68.656.834c0 .412.032.581.072.375a2.36 2.36 0 0 0 0-.75c-.04-.207-.072-.038-.072.375m-31.67.416c.002.367.036.497.076.29s.038-.507-.004-.667-.074.011-.072.377m-83.326.417c0 .504.032.71.07.458s.038-.664 0-.916-.07-.046-.07.458m67.665 1.25c.001.458.033.626.072.373s.037-.629-.003-.834-.071.003-.069.461m-68.676-.083c0 .32.034.452.076.291s.042-.423 0-.583-.076-.029-.076.292m69.833.166c0 .321.035.452.077.292a1.4 1.4 0 0 0 0-.583c-.042-.161-.077-.029-.077.291m-68.666.5c0 .321.034.452.076.292s.042-.423 0-.583-.076-.029-.076.291m-1 .834c0 .32.034.452.076.291s.042-.423 0-.583-.076-.029-.076.292m69.833 0c0 .32.034.452.076.291s.042-.423 0-.583-.076-.029-.076.292m-23.586.702c-.152.475-.249.891-.215.924s.189-.323.346-.793.252-.886.214-.924-.194.318-.345.793m68.747-.086c-.246.804-.127.923.134.134.11-.333.167-.638.128-.678s-.158.205-.262.544m-98.355 1.134c0 .091.108.354.239.583s.238.342.238.25-.107-.354-.238-.583-.239-.342-.239-.25m97.197 1.639c-.389.748-.589 1.211-.445 1.027.32-.405 1.279-2.263 1.206-2.335-.029-.029-.371.56-.761 1.308m-44.352.611c0 .137.065.4.144.583.09.21.143.241.143.083 0-.137-.065-.4-.143-.583-.091-.21-.144-.241-.144-.083m-51.407.512c.165.283.407.601.537.709s.027-.123-.23-.513c-.54-.818-.752-.953-.307-.196m52.73-.084c-.018.252.511 1.77.589 1.692.035-.035-.08-.47-.257-.967s-.326-.823-.332-.725m41.727 1.017c-.257.336-.382.559-.278.495.214-.132.935-1.107.819-1.107-.041 0-.284.275-.541.612m-68.913.263c-.31.39-.432.602-.271.473.304-.244 1.018-1.181.9-1.181-.036 0-.32.318-.629.708m67.418 1.5l-.995 1.042 1.042-.995c.968-.924 1.118-1.089.995-1.089-.026 0-.495.469-1.042 1.042m-39.566-.837c-.019.198.524 1.482.596 1.41.036-.036-.081-.396-.259-.799s-.331-.678-.337-.611m-51.186.837c.409.435.765.792.792.792.125 0-.007-.15-.743-.841l-.792-.743.743.792m22.165-.083l-.574.625.625-.575c.343-.316.625-.597.625-.625 0-.127-.141-.007-.676.575m-39.313.291c0 .092.108.355.239.584s.238.341.238.25-.107-.354-.238-.584-.239-.341-.239-.25m37.976.875l-.404.459.5-.417c.275-.229.531-.435.569-.458s-.005-.042-.096-.042-.347.206-.569.458m-19.594.004c.132.213 1.107.935 1.107.819 0-.041-.276-.285-.612-.541s-.559-.382-.495-.278m49.455-.045c0 .091.181.504.402.916s.401.675.401.584-.18-.505-.401-.917-.402-.675-.402-.583m1.318.144c0 .181.829 1.772.923 1.772.045 0-.115-.393-.357-.875-.464-.925-.566-1.086-.566-.897m-69.666.499c0 .181.994 2.107 1.088 2.107.046 0-.152-.469-.439-1.042-.544-1.086-.649-1.258-.649-1.065m1.916 1.44c.143.275.296.5.342.5s-.033-.225-.175-.5-.296-.5-.342-.5.033.225.175.5m67.5.167c.143.275.296.5.342.5s-.033-.225-.175-.5-.296-.5-.342-.5.033.225.175.5m1.5.333c.143.275.296.5.342.5s-.033-.225-.175-.5-.296-.5-.342-.5.033.225.175.5m-44.289.785a1.83 1.83 0 0 0 .666-.004c.16-.042-.01-.074-.377-.072s-.497.036-.289.076m3.414-.003c.161.041.423.041.584 0s.029-.077-.292-.077-.452.035-.292.077m65.334 0a1.4 1.4 0 0 0 .583 0c.16-.042.029-.077-.292-.077s-.452.035-.291.077m3.418.003c.208.039.508.038.667-.004s-.01-.074-.377-.072-.497.036-.29.076m-96.981.632c.09.183.285.483.435.666l.271.334-.164-.334c-.09-.183-.285-.483-.435-.666l-.271-.334.164.334m69.294 1c.385.658.394.668.394.463 0-.097-.155-.353-.344-.57l-.343-.393.293.5m1.557.245c.194.272.437.547.541.611s-.021-.158-.277-.494c-.557-.731-.767-.824-.264-.117m-66.837 2.213c.409.435.765.792.792.792.125 0-.007-.15-.743-.841l-.792-.743.743.792m69.507.851c.688.715 1.7 1.682 2.25 2.15 1.191 1.014.951.767-1.583-1.633-1.413-1.338-1.588-1.474-.667-.517m-71.167-1.007c0 .029.244.272.542.541l.542.49-.49-.542c-.456-.505-.594-.618-.594-.489m3.917 2.448c.451.458.858.833.904.833s-.286-.375-.737-.833-.859-.834-.904-.834.286.375.737.834m34.658.464c-1.01.955-.775.806.551-.347.39-.34.652-.615.583-.612s-.579.435-1.134.959m69.001-.256l-.659.708.674-.625c.37-.343.726-.625.791-.625s.118 1.35.118 3v3l4.709-.039 4.708-.039-4.625-.047-4.625-.047v-2.997c0-3.39-.023-3.438-1.091-2.289M94 134.222c0 .046.3.321.667.611s.666.491.666.445-.3-.321-.666-.611-.667-.491-.667-.445m70 1.005c0 .046.225.244.5.44s.5.318.5.272-.225-.243-.5-.439-.5-.319-.5-.273m-65.833 1.848c0 .046.225.199.5.342s.5.221.5.175-.225-.2-.5-.342-.5-.221-.5-.175M189.5 138c-.321.176-.508.319-.417.319s.429-.143.75-.319.509-.319.417-.319-.429.143-.75.319m143.702-.21l3.618.05.058 1.372.058 1.371-.01-1.416-.009-1.417-3.667-.005-3.667-.005 3.619.05m17.131.285c0 .046.225.199.5.342s.5.221.5.175-.225-.2-.5-.342-.5-.221-.5-.175m2.493 1.8c.691.736.841.868.841.743 0-.027-.357-.383-.792-.792l-.792-.743.743.792m18.5 0c.691.736.841.868.841.743 0-.027-.357-.383-.792-.792l-.792-.743.743.792m-16.249.833l-.827.875.875-.827c.813-.768.951-.923.827-.923-.026 0-.42.394-.875.875m-247.45-.59c.207.04.507.038.667-.003s-.011-.075-.377-.073-.497.036-.29.076m5.333 0c.208.04.508.038.667-.003s-.01-.075-.377-.073-.497.036-.29.076m63.5 0c.208.04.508.038.667-.003s-.01-.075-.377-.073-.497.036-.29.076m5.165 0a2.42 2.42 0 0 0 .75 0c.206-.04.037-.073-.375-.073s-.581.033-.375.073m-71.25.164a1.4 1.4 0 0 0 .583 0c.161-.042.029-.077-.291-.077s-.452.035-.292.077m68.667 0a1.4 1.4 0 0 0 .583 0c.16-.042.029-.077-.292-.077s-.452.035-.291.077m126.868.926l-.827.875.875-.827c.482-.455.875-.848.875-.875 0-.124-.154.014-.923.827m.919.584l-1.079 1.125 1.125-1.079c1.045-1.002 1.201-1.171 1.079-1.171-.026 0-.532.506-1.125 1.125m22.082 8.291l.047 4.721v-9.334c-.026-2.596-.047-.52-.047 4.613m-33.369-7.128a7.25 7.25 0 0 0 1.25 0c.343-.036.062-.066-.625-.066s-.969.03-.625.066m22.333-.002c.252.038.665.038.917 0s.045-.07-.459-.07-.71.032-.458.07m-36.003.672c-.431.623-.572.875-.487.875.039 0 .269-.3.512-.667.493-.745.472-.925-.025-.208m56.868.917l-.49.541.542-.489c.298-.269.541-.513.541-.542 0-.129-.137-.015-.593.49m-14.411.875l.975 1.083c.041.046-.005-.067-.102-.25s-.536-.671-.976-1.083l-.799-.75.902 1m-35.338.041l-.574.625.625-.574c.581-.535.701-.676.574-.676-.028 0-.309.282-.625.625m-1.249 1.724c-.147.284-.237.545-.201.581s.191-.195.343-.515c.343-.719.224-.774-.142-.066m85.965 7.356l-.04 7.789-3.625.048-3.625.049 3.63.038c2.779.029 3.649-.011 3.71-.17.044-.115.06-3.659.035-7.875l-.045-7.667-.04 7.788m-7.335-6.705c0 .321.034.452.076.292s.042-.423 0-.583-.076-.03-.076.291m-18.33.75c.002.367.036.497.076.29s.038-.507-.003-.667-.075.011-.073.377m-68.163.417c0 .412.032.581.072.375a2.36 2.36 0 0 0 0-.75c-.04-.206-.072-.038-.072.375m23.5 0c0 .412.032.581.072.375a2.36 2.36 0 0 0 0-.75c-.04-.206-.072-.038-.072.375m52.01.667c0 .687.03.968.066.625a7.25 7.25 0 0 0 0-1.25c-.036-.344-.066-.063-.066.625m-44.832.416c.001.734.03 1.013.065.621s.035-.992-.001-1.333-.064-.021-.064.712m-23.507.084c0 .504.031.71.069.458a3.61 3.61 0 0 0 0-.917c-.038-.252-.069-.046-.069.459m49.823 5.621l-.04 6.539-3.625.048-3.625.049 3.631.038c2.783.029 3.648-.011 3.71-.171.044-.115.059-3.096.034-6.625l-.045-6.416-.04 6.538m-33.494-4.621c0 .412.032.581.072.375a2.36 2.36 0 0 0 0-.75c-.04-.207-.072-.038-.072.375m-23.5.166c0 .413.032.582.072.375a2.36 2.36 0 0 0 0-.75c-.04-.206-.072-.037-.072.375m7.621 1.397c0 .179.496 1.103.592 1.103.046 0-.041-.243-.192-.541-.31-.609-.4-.736-.4-.562m-7.313.437c-.003.137.098.475.224.75.294.643.299.344.006-.417-.124-.321-.227-.471-.23-.333m31.444.916c.097.184.536.671.976 1.084l.799.75-.901-1-.976-1.084c-.041-.046.005.067.102.25m-30.964.479c0 .18.662 1.438.756 1.438.046 0-.077-.319-.273-.708-.387-.766-.483-.912-.483-.73m23.5 0c0 .18.662 1.438.756 1.438.046 0-.077-.319-.273-.708-.387-.766-.483-.912-.483-.73m-28.209 1.389a2.36 2.36 0 0 0 .75 0c.207-.04.038-.072-.375-.072s-.581.032-.375.072m3.492 1.216a5.17 5.17 0 0 1 .785 1.166c.138.321.255.486.258.367.012-.377-.444-1.099-1.02-1.616l-.556-.5.533.583m-7.618.208c-.182.298-.331.61-.331.694-.001.19.022.159.463-.611.439-.765.326-.836-.132-.083m32.653-.07a2.15 2.15 0 0 0 .454.542c.18.146.14.03-.105-.305-.438-.598-.602-.709-.349-.237m13.39-.019c.252.038.665.038.917 0s.045-.069-.459-.069-.71.031-.458.069m-45.21.589c-.182.298-.328.654-.325.792s.118-.008.255-.322.33-.671.43-.792.135-.22.076-.22-.255.244-.436.542m22.623-.421a6.31 6.31 0 0 0 1.167.001c.345-.036.103-.066-.538-.067s-.925.029-.629.066m10.621 1.503c.801.847.816.881.5 1.134s-.312.254.049.079c.52-.252.491-.323-.5-1.26l-.875-.827.826.874m-25.37.543c0 .321.034.452.076.292a1.37 1.37 0 0 0 0-.584c-.042-.16-.076-.029-.076.292m27.113-.277c.244.303 1.181 1.017 1.181.9 0-.037-.318-.321-.708-.63s-.602-.431-.473-.27m20.348.797c-.581.51-.581.51-.047.155.295-.197.581-.429.635-.516.161-.26.028-.178-.588.361m-42.888-.007c.207.251 1.221.889 1.221.769 0-.039-.318-.281-.708-.538s-.62-.361-.513-.231m-5.319 1.339c-.251.356-.424.648-.383.648.119 0 .976-1.17.905-1.236-.036-.033-.271.231-.522.588m-7.959.157c0 .051.187.347.416.658s.414.494.411.407c-.007-.167-.825-1.222-.827-1.065m78.032.949a77.24 77.24 0 0 0 3.666 0c1.037-.029.235-.054-1.782-.054s-2.865.024-1.884.054m-56.658.49a1.37 1.37 0 0 0 .584 0c.16-.042.029-.076-.292-.076s-.452.034-.292.076m4.834 0c.16.042.423.042.583 0s.029-.076-.292-.076-.452.034-.291.076m17.833 0c.16.042.423.042.583 0s.029-.076-.291-.076-.452.034-.292.076m4.167 0c.16.042.423.042.583 0s.029-.076-.292-.076-.452.034-.291.076" fill="#ca6261"/></svg>